<svg width="13" height="16" viewBox="0 0 13 16" fill="none" xmlns="http://www.w3.org/2000/svg">
<g clip-path="url(#clip0_4055_80918)">
<path d="M1.53627 0.034963C1.94681 -0.0284256 2.37958 0.0654725 2.72584 0.29533C3.08396 0.529039 3.34788 0.902558 3.44681 1.31873C3.55019 1.74261 3.48266 2.20528 3.2602 2.58058C3.0419 2.95499 2.67519 3.23994 2.25783 3.35724C1.80967 3.48609 1.30908 3.42092 0.910973 3.17714C0.532419 2.95025 0.248948 2.57021 0.141128 2.1416C0.0256064 1.69788 0.100251 1.20884 0.34403 0.820508C0.601732 0.401669 1.04901 0.105164 1.53627 0.034963Z" fill="#FF8A00"/>
<path d="M0.155482 4.15736C1.24583 4.15588 2.33617 4.15588 3.42651 4.15736C3.42859 4.29391 3.43125 4.43046 3.41822 4.56642C2.43777 5.00392 1.54974 5.67602 0.920588 6.55161C0.630304 6.95001 0.412295 7.3964 0.248491 7.86056C0.225387 7.86263 0.178882 7.86708 0.155778 7.86915C0.153704 6.63189 0.154001 5.39462 0.155482 4.15736Z" fill="#FF8A00"/>
<path d="M3.00941 5.23312C4.02482 4.60278 5.21706 4.2731 6.40959 4.25C7.65989 4.25474 8.91107 4.61108 9.96676 5.28377C10.2739 5.48489 10.5707 5.7035 10.8498 5.94224C11.2375 6.28199 11.5621 6.69165 11.8113 7.14307C12.2259 7.81576 12.5094 8.5705 12.6285 9.35249C12.6765 9.65284 12.6833 9.95764 12.7017 10.261C12.7991 12.2367 12.7058 14.2145 12.7283 16.1911C11.8764 16.1967 11.0242 16.1919 10.172 16.1934C9.99934 16.1913 9.82636 16.1999 9.65396 16.1869C9.65337 14.5379 9.65367 12.8889 9.65367 11.2399C9.68773 10.396 9.43536 9.55302 8.98631 8.84153C8.675 8.35989 8.23039 7.96416 7.71173 7.71801C7.18092 7.4606 6.57162 7.40047 5.99135 7.47749C5.40071 7.55124 4.84976 7.83738 4.41522 8.23874C3.69988 8.91203 3.32043 9.88566 3.24253 10.8528C3.2372 12.6321 3.24431 14.4117 3.23898 16.1914C2.21498 16.1952 1.19069 16.194 0.166701 16.1919C0.185954 14.0779 0.0887978 11.9618 0.212317 9.84953C0.271855 8.8596 0.605978 7.89514 1.13293 7.05835C1.56125 6.27903 2.26771 5.70024 3.00941 5.23312Z" fill="#282F3C"/>
</g>
<defs>
<clipPath id="clip0_4055_80918">
<rect width="13" height="16" fill="white"/>
</clipPath>
</defs>
</svg>
