<svg width="328" height="65" viewBox="0 0 328 65" fill="none" xmlns="http://www.w3.org/2000/svg">
<path d="M24.2937 0.492188C27.0937 2.46552 30.5737 4.01219 32.0271 7.33219C30.8671 13.0655 27.1737 17.9722 24.7871 23.2655C18.2137 36.6922 10.9071 49.8655 6.34707 64.1589C3.85374 62.2255 0.69374 60.1722 0.707073 56.5989C0.907073 49.0922 4.9204 42.3989 7.50707 35.5189C12.3337 23.4655 20.2671 12.8655 24.2937 0.492188Z" fill="#F5BA16"/>
<path d="M35.0535 32.1357C41.0268 27.8023 48.5335 23.589 56.1468 25.549C58.9068 26.2423 58.6535 29.4557 58.9868 31.669C60.3602 33.2157 61.7202 34.7623 63.0535 36.3357C57.6268 44.949 51.2002 53.5757 49.4668 63.8157C47.0002 62.6557 43.9068 61.6823 42.9735 58.8157C42.4002 56.389 42.9202 53.8557 42.9868 51.4023C37.9868 56.2823 32.2668 61.589 25.0135 62.389C20.6535 62.7623 17.9868 57.869 19.1335 54.0157C21.2802 44.989 27.9868 37.7757 35.0535 32.1357ZM36.5868 40.2823C33.6268 44.349 30.1068 48.909 31.2935 54.269C40.5735 50.8557 46.9735 42.709 52.7868 35.109C54.9202 32.8423 53.6268 29.389 50.3202 29.6023C44.2668 30.629 40.1868 35.749 36.5868 40.2823Z" fill="#F5BA16"/>
<path d="M245.587 0.476562C248.467 2.67656 253.454 4.39656 253.267 8.66323C244.867 27.1966 234 44.7166 227.694 64.1566C223.654 61.9166 220.68 57.4899 222.4 52.7699C225.56 41.7032 230.6 31.2499 235.894 21.0632C239.294 14.2766 243.614 7.8899 245.587 0.476562Z" fill="#2E2C2B"/>
<path d="M171.359 7.00781C174.465 8.92781 179.305 9.88781 180.119 13.9811C177.705 20.7945 173.319 26.7145 169.572 32.8345C173.025 30.1811 176.519 27.0478 181.012 26.4478C186.119 25.5011 191.785 29.8611 190.892 35.3278C189.279 48.2611 178.412 58.8211 166.119 62.1545C160.559 63.7678 152.319 61.8878 151.439 55.1811C150.479 47.3945 154.439 40.1811 158.052 33.5945C162.505 24.7278 169.239 16.9278 171.359 7.00781ZM176.185 31.9945C168.092 37.0478 161.985 45.0478 158.025 53.6478C156.532 55.8078 157.625 60.0611 160.839 58.2078C167.159 55.7545 172.159 50.6478 176.145 45.2878C178.692 41.4345 181.772 37.3011 181.692 32.4611C181.505 29.2611 177.772 31.0611 176.185 31.9945Z" fill="#2E2C2B"/>
<path d="M60.2264 55.5952C62.9864 44.1952 70.2397 34.5419 73.7997 23.4219C76.6797 24.9685 79.7197 26.3552 82.2264 28.5019C82.3464 30.9285 81.2797 33.1419 80.3864 35.3152C85.493 31.4752 91.413 26.4885 98.1997 27.6219C101.88 28.7285 101.053 32.9419 100.106 35.7285C105 31.3952 111.293 27.4885 118.08 28.1019C122.293 29.7819 122.026 35.0885 119.933 38.3285C115.32 46.2752 110.04 54.1285 108.533 63.3819C105.746 61.7419 102.133 60.1419 101.8 56.4485C100.586 47.7019 107.253 41.1152 110.533 33.7285C105.133 34.5819 100.866 38.5019 97.5864 42.6219C93.4797 48.7819 90.2664 55.5152 87.4264 62.3552C84.4664 61.7419 81.6264 59.7552 81.413 56.4885C80.7864 47.6885 87.6797 41.1152 90.813 33.4885C85.0397 34.6485 80.8797 39.2619 77.2664 43.5685C73.0797 49.7419 69.2797 56.2085 66.173 62.9819C62.653 62.4085 59.1597 59.5019 60.2264 55.5952Z" fill="#2E2C2B"/>
<path d="M120.039 46.3181C123.306 36.5181 131.066 27.9181 141.066 24.8381C145.972 23.5981 152.519 24.2248 155.519 28.8115C156.452 32.7581 154.039 36.4515 151.492 39.2248C146.212 44.7315 138.132 49.0648 130.466 45.9715C129.732 49.4781 127.692 54.5715 131.799 56.7848C137.546 59.8115 142.186 53.6381 147.519 53.1981C143.772 58.9848 136.919 62.1181 130.186 62.5715C126.212 62.8648 121.692 61.5448 119.706 57.8115C118.159 54.1181 118.892 49.9981 120.039 46.3181ZM131.506 43.9581C140.266 43.6515 148.292 35.9848 149.652 27.4381C140.519 27.6648 135.426 36.9048 131.506 43.9581Z" fill="#2E2C2B"/>
<path d="M207.44 25.8799C212.56 23.5199 219.266 23.5466 223.72 27.3066C226.426 29.9999 224.573 34.2799 222.706 36.9199C217.586 43.7333 208.453 49.3466 199.813 45.9599C199.08 49.4666 197.013 54.5999 201.146 56.7999C206.88 59.8133 211.52 53.6533 216.853 53.1999C212.36 59.9466 203.613 63.4799 195.68 62.3199C190.96 61.8266 187.506 57.2266 188.16 52.5466C189.213 41.0799 197.053 30.6666 207.44 25.8799ZM200.84 43.9466C209.586 43.6399 217.64 35.9999 218.986 27.4399C209.853 27.6799 204.76 36.8933 200.84 43.9466Z" fill="#2E2C2B"/>
<path d="M261.293 24.5469C264.333 25.4135 268.106 25.0402 270.493 27.4402C272.04 36.5602 265.173 44.2269 263.373 52.8402C274.24 47.3469 280.546 36.0535 285.493 25.3869C288.173 26.6135 292.746 26.3335 293.506 29.8402C289.68 40.5869 282.2 49.9335 280.16 61.3202C278.093 59.6135 275.346 58.0669 274.92 55.1602C274.626 52.8402 275.026 50.5069 275.173 48.1869C269.96 53.7735 264.813 60.8135 256.906 62.4269C254.026 61.5469 252.826 58.2802 252.866 55.5335C252.986 48.9069 255.946 42.8135 258.56 36.8802C260.186 32.9735 262.84 28.9202 261.293 24.5469Z" fill="#2E2C2B"/>
<path d="M298.586 26.0336C306.892 26.2203 315.172 25.6069 323.466 25.7936C324.719 28.5136 325.946 31.2336 327.159 33.9669C323.719 39.2469 318.252 42.5803 313.399 46.3803C308.226 50.1269 303.292 54.2203 297.919 57.6869C304.879 58.1003 312.892 54.4603 318.786 59.7536C312.266 62.2469 305.172 62.1269 298.346 63.1803C294.746 64.1003 289.892 62.1269 289.946 57.8869C290.372 55.1669 292.239 53.0336 293.932 50.9803C300.946 43.0736 309.119 36.3136 317.572 30.0203C311.986 29.9803 306.399 29.9669 300.812 30.0603C300.052 28.7269 299.319 27.3803 298.586 26.0336Z" fill="#2E2C2B"/>
<path d="M244.079 51.7188C246.972 51.9454 251.332 51.8121 252.066 55.4654C254.012 60.5187 246.652 65.3588 242.759 61.5988C239.932 58.6788 241.506 54.2254 244.079 51.7188Z" fill="#2E2C2B"/>
</svg>
