<svg width="40" height="44" viewBox="0 0 40 44" fill="none" xmlns="http://www.w3.org/2000/svg">
<path d="M37.5312 27.5189V3.4375C37.5312 1.54215 35.9891 0 34.0938 0H3.84375C1.9484 0 0.40625 1.54215 0.40625 3.4375V39.875C0.40625 41.7704 1.9484 43.3125 3.84375 43.3125H25.5981C26.7622 43.7647 27.9994 44 29.2812 44C34.9679 44 39.5938 39.3742 39.5938 33.6875C39.5938 31.4414 38.8772 29.3159 37.5312 27.5189ZM34.9806 30.7381L27.0194 38.6994C26.7512 38.9675 26.3113 38.9675 26.0431 38.6994L22.2069 34.8631C21.9387 34.595 21.9387 34.155 22.2069 33.8869L23.2931 32.8006C23.5613 32.5325 24.0012 32.5325 24.2694 32.8006L26.0431 34.5744C26.3113 34.8425 26.7512 34.8425 27.0194 34.5744L32.9181 28.6756C33.1862 28.4075 33.6263 28.4075 33.8944 28.6756L34.9806 29.7619C35.2487 30.03 35.2487 30.47 34.9806 30.7381ZM25.6875 4.125H31.3438C32.481 4.125 33.4062 5.0502 33.4062 6.1875V24.2406C32.1144 23.6748 30.7094 23.375 29.2812 23.375C23.5946 23.375 18.9688 28.0008 18.9688 33.6875C18.9688 35.6439 19.5381 37.5506 20.5752 39.1875H6.59375C5.45645 39.1875 4.53125 38.2623 4.53125 37.125V6.1875C4.53125 5.0502 5.45645 4.125 6.59375 4.125H12.25L13.3056 5.27639C13.4359 5.4187 13.6198 5.5 13.8125 5.5H24.125C24.3177 5.5 24.5017 5.41879 24.6319 5.27639L25.6875 4.125ZM23.8222 4.125H14.1153L11.5943 1.375H26.3431L23.8222 4.125Z" fill="#FFC31B"/>
<path d="M16.2188 6.875H6.59375C6.21373 6.875 5.90625 7.18248 5.90625 7.5625V14.4375C5.90625 14.8175 6.21373 15.125 6.59375 15.125H16.2188C16.5988 15.125 16.9062 14.8175 16.9062 14.4375V7.5625C16.9062 7.18248 16.5988 6.875 16.2188 6.875ZM16.2188 16.5H6.59375C6.21373 16.5 5.90625 16.8075 5.90625 17.1875V24.0625C5.90625 24.4425 6.21373 24.75 6.59375 24.75H16.2188C16.5988 24.75 16.9062 24.4425 16.9062 24.0625V17.1875C16.9062 16.8075 16.5988 16.5 16.2188 16.5ZM16.2188 26.125H6.59375C6.21373 26.125 5.90625 26.4325 5.90625 26.8125V33.6875C5.90625 34.0675 6.21373 34.375 6.59375 34.375H16.2188C16.5988 34.375 16.9062 34.0675 16.9062 33.6875V26.8125C16.9062 26.4325 16.5988 26.125 16.2188 26.125ZM19.6562 8.25C19.6562 8.63002 19.9637 8.9375 20.3438 8.9375H29.9688C30.3488 8.9375 30.6562 8.63002 30.6562 8.25C30.6562 7.86998 30.3488 7.5625 29.9688 7.5625H20.3438C19.9637 7.5625 19.6562 7.86998 19.6562 8.25ZM29.9688 10.3125H20.3438C19.9637 10.3125 19.6562 10.62 19.6562 11C19.6562 11.38 19.9637 11.6875 20.3438 11.6875H29.9688C30.3488 11.6875 30.6562 11.38 30.6562 11C30.6562 10.62 30.3488 10.3125 29.9688 10.3125ZM29.9688 13.0625H26.5312C26.1512 13.0625 25.8438 13.37 25.8438 13.75C25.8438 14.13 26.1512 14.4375 26.5312 14.4375H29.9688C30.3488 14.4375 30.6562 14.13 30.6562 13.75C30.6562 13.37 30.3488 13.0625 29.9688 13.0625ZM20.3438 14.4375H23.7812C24.1613 14.4375 24.4688 14.13 24.4688 13.75C24.4688 13.37 24.1613 13.0625 23.7812 13.0625H20.3438C19.9637 13.0625 19.6562 13.37 19.6562 13.75C19.6562 14.13 19.9637 14.4375 20.3438 14.4375ZM29.9688 15.8125H20.3438C19.9637 15.8125 19.6562 16.12 19.6562 16.5C19.6562 16.88 19.9637 17.1875 20.3438 17.1875H29.9688C30.3488 17.1875 30.6562 16.88 30.6562 16.5C30.6562 16.12 30.3488 15.8125 29.9688 15.8125ZM29.9688 18.5625H25.1562C24.7762 18.5625 24.4688 18.87 24.4688 19.25C24.4688 19.63 24.7762 19.9375 25.1562 19.9375H29.9688C30.3488 19.9375 30.6562 19.63 30.6562 19.25C30.6562 18.87 30.3488 18.5625 29.9688 18.5625ZM20.3438 19.9375H22.4062C22.7863 19.9375 23.0938 19.63 23.0938 19.25C23.0938 18.87 22.7863 18.5625 22.4062 18.5625H20.3438C19.9637 18.5625 19.6562 18.87 19.6562 19.25C19.6562 19.63 19.9637 19.9375 20.3438 19.9375ZM29.9688 21.3125H28.5938C28.2137 21.3125 27.9062 21.62 27.9062 22C27.9062 22.38 28.2137 22.6875 28.5938 22.6875H29.9688C30.3488 22.6875 30.6562 22.38 30.6562 22C30.6562 21.62 30.3488 21.3125 29.9688 21.3125ZM25.8438 21.3125H20.3438C19.9637 21.3125 19.6562 21.62 19.6562 22C19.6562 22.38 19.9637 22.6875 20.3438 22.6875H25.8438C26.2238 22.6875 26.5312 22.38 26.5312 22C26.5312 21.62 26.2238 21.3125 25.8438 21.3125Z" fill="#FFC31B"/>
</svg>
