<svg width="50" height="44" viewBox="0 0 50 44" fill="none" xmlns="http://www.w3.org/2000/svg">
<path d="M7.40741 3.66667C7.40741 5.04167 6.79012 6.09201 5.55556 6.81771V43.0833C5.55556 43.3316 5.46393 43.5464 5.28067 43.7279C5.09741 43.9093 4.8804 44 4.62963 44H2.77778C2.52701 44 2.30999 43.9093 2.12674 43.7279C1.94348 43.5464 1.85185 43.3316 1.85185 43.0833V6.81771C0.617284 6.09201 0 5.04167 0 3.66667C0 2.65451 0.36169 1.79036 1.08507 1.07422C1.80845 0.358073 2.68133 0 3.7037 0C4.72608 0 5.59896 0.358073 6.32234 1.07422C7.04572 1.79036 7.40741 2.65451 7.40741 3.66667ZM50 5.5V27.3568C50 27.8342 49.8794 28.2018 49.6383 28.4596C49.3972 28.7174 49.0162 28.98 48.4954 29.2474C44.348 31.4627 40.789 32.5703 37.8183 32.5703C36.6416 32.5703 35.4504 32.3602 34.2448 31.9401C33.0392 31.52 31.9927 31.0616 31.1053 30.5651C30.218 30.0686 29.104 29.6102 27.7633 29.1901C26.4226 28.77 25.0482 28.5599 23.64 28.5599C19.9363 28.5599 15.461 29.954 10.2141 32.7422C9.88619 32.9141 9.5679 33 9.25926 33C8.75772 33 8.32369 32.8186 7.95718 32.4557C7.59066 32.0929 7.40741 31.6632 7.40741 31.1667V9.91146C7.40741 9.30035 7.7064 8.77517 8.3044 8.33594C8.70949 8.06858 9.47145 7.65799 10.5903 7.10417C15.1427 4.8125 19.2033 3.66667 22.772 3.66667C24.836 3.66667 26.765 3.94358 28.559 4.4974C30.353 5.05122 32.4653 5.89149 34.8958 7.01823C35.6289 7.38108 36.4776 7.5625 37.4421 7.5625C38.4838 7.5625 39.6171 7.36198 40.842 6.96094C42.0669 6.5599 43.1279 6.11111 44.0249 5.61458C44.9219 5.11806 45.7706 4.66927 46.5712 4.26823C47.3717 3.86719 47.8974 3.66667 48.1481 3.66667C48.6497 3.66667 49.0837 3.84809 49.4502 4.21094C49.8167 4.57378 50 5.00347 50 5.5Z" fill="#FFC31B"/>
</svg>
