<svg width="50" height="48" viewBox="0 0 50 48" fill="none" xmlns="http://www.w3.org/2000/svg">
<path d="M44.9474 31.0781C44.9474 32.3899 44.6006 33.6724 43.9507 34.7632C43.3009 35.854 42.3773 36.7041 41.2967 37.2062C40.216 37.7082 39.027 37.8395 37.8798 37.5836C36.7326 37.3277 35.6789 36.6959 34.8518 35.7683C34.0247 34.8407 33.4615 33.6588 33.2333 32.3721C33.0051 31.0854 33.1222 29.7517 33.5698 28.5397C34.0174 27.3277 34.7754 26.2918 35.748 25.5629C36.7205 24.8341 37.8639 24.4451 39.0335 24.4451C40.6015 24.4469 42.1047 25.1463 43.2134 26.3899C44.3221 27.6334 44.9457 29.3195 44.9474 31.0781ZM35.3557 39.7691V46.7091C35.3557 46.8832 35.3961 47.0543 35.4731 47.2055C35.5501 47.3567 35.661 47.4827 35.7947 47.5711C35.9285 47.6595 36.0805 47.7072 36.2357 47.7095C36.3909 47.7117 36.544 47.6685 36.6797 47.5841L38.3862 46.5241C38.5845 46.401 38.8074 46.3364 39.034 46.3364C39.2606 46.3364 39.4835 46.401 39.6817 46.5241L41.3873 47.5841C41.523 47.6683 41.676 47.7113 41.8311 47.7089C41.9862 47.7065 42.1381 47.6588 42.2717 47.5704C42.4053 47.482 42.516 47.3561 42.593 47.2051C42.6699 47.054 42.7104 46.883 42.7104 46.7091V39.7691C41.5632 40.3883 40.3063 40.7099 39.0331 40.7099C37.7599 40.7099 36.503 40.3883 35.3557 39.7691ZM50 1.28906V39.6391C50 39.9043 49.9061 40.1586 49.7389 40.3462C49.5717 40.5337 49.3449 40.6391 49.1084 40.6391H45.3816V37.5391C46.823 35.7764 47.6216 33.4709 47.6195 31.0791C47.6229 29.5134 47.286 27.9704 46.6379 26.5838C45.9898 25.1971 45.05 24.0086 43.8999 23.1212C42.7499 22.2339 41.4243 21.6744 40.038 21.4912C38.6516 21.308 37.2464 21.5068 35.944 22.0701C34.6416 22.6335 33.4813 23.5446 32.5636 24.7244C31.646 25.9041 30.9986 27.3171 30.6777 28.8408C30.3567 30.3645 30.3718 31.953 30.7216 33.4687C31.0715 34.9843 31.7456 36.3815 32.6854 37.5391V40.6391H0.891583C0.655121 40.6391 0.428343 40.5337 0.261139 40.3462C0.0939346 40.1586 0 39.9043 0 39.6391V1.28906C0 1.02385 0.0939346 0.769492 0.261139 0.581955C0.428343 0.394419 0.655121 0.289062 0.891583 0.289062H49.1084C49.3449 0.289062 49.5717 0.394419 49.7389 0.581955C49.9061 0.769492 50 1.02385 50 1.28906ZM15.5046 8.35906C15.5044 8.55612 15.5388 8.75129 15.606 8.9334C15.6731 9.11551 15.7716 9.28097 15.8958 9.42031C16.0201 9.55965 16.1676 9.67013 16.3299 9.74542C16.4923 9.82071 16.6663 9.85933 16.842 9.85906H33.158C33.5127 9.85906 33.8528 9.70103 34.1037 9.41972C34.3545 9.13842 34.4954 8.75689 34.4954 8.35906C34.4954 7.96124 34.3545 7.57971 34.1037 7.2984C33.8528 7.0171 33.5127 6.85906 33.158 6.85906H16.842C16.6663 6.8588 16.4923 6.89742 16.3299 6.97271C16.1676 7.048 16.0201 7.15847 15.8958 7.29782C15.7716 7.43716 15.6731 7.60262 15.606 7.78473C15.5388 7.96683 15.5044 8.16201 15.5046 8.35906ZM27.6213 28.7991C27.6215 28.602 27.5871 28.4068 27.5199 28.2247C27.4528 28.0426 27.3543 27.8772 27.2301 27.7378C27.1058 27.5985 26.9583 27.488 26.7959 27.4127C26.6336 27.3374 26.4596 27.2988 26.2839 27.2991H6.30349C5.9488 27.2991 5.60863 27.4571 5.35783 27.7384C5.10702 28.0197 4.96612 28.4012 4.96612 28.7991C4.96612 29.1969 5.10702 29.5784 5.35783 29.8597C5.60863 30.141 5.9488 30.2991 6.30349 30.2991H26.2839C26.4596 30.2993 26.6336 30.2607 26.7959 30.1854C26.9583 30.1101 27.1058 29.9997 27.2301 29.8603C27.3543 29.721 27.4528 29.5555 27.5199 29.3734C27.5871 29.1913 27.6215 28.9961 27.6213 28.7991ZM29.449 21.9891C29.4492 21.792 29.4148 21.5968 29.3477 21.4147C29.2806 21.2326 29.1821 21.0672 29.0578 20.9278C28.9336 20.7885 28.7861 20.678 28.6237 20.6027C28.4613 20.5274 28.2873 20.4888 28.1116 20.4891H6.30349C5.9488 20.4891 5.60863 20.6471 5.35783 20.9284C5.10702 21.2097 4.96612 21.5912 4.96612 21.9891C4.96612 22.3869 5.10702 22.7684 5.35783 23.0497C5.60863 23.331 5.9488 23.4891 6.30349 23.4891H28.1116C28.2873 23.4893 28.4613 23.4507 28.6237 23.3754C28.7861 23.3001 28.9336 23.1896 29.0578 23.0503C29.1821 22.911 29.2806 22.7455 29.3477 22.5634C29.4148 22.3813 29.4492 22.1861 29.449 21.9891ZM45.0339 15.1691C45.0329 14.7716 44.8917 14.3906 44.6411 14.1096C44.3905 13.8285 44.0509 13.6701 43.6965 13.6691H6.30349C5.9488 13.6691 5.60863 13.8271 5.35783 14.1084C5.10702 14.3897 4.96612 14.7712 4.96612 15.1691C4.96612 15.5669 5.10702 15.9484 5.35783 16.2297C5.60863 16.511 5.9488 16.6691 6.30349 16.6691H43.6965C43.8722 16.6693 44.0462 16.6307 44.2086 16.5554C44.3709 16.4801 44.5185 16.3696 44.6427 16.2303C44.7669 16.091 44.8654 15.9255 44.9326 15.7434C44.9997 15.5613 45.0341 15.3661 45.0339 15.1691Z" fill="#FFC31B"/>
</svg>
