<svg width="50" height="50" viewBox="0 0 50 50" fill="none" xmlns="http://www.w3.org/2000/svg">
<path d="M6.25 41.0513H3.57143C2.62423 41.0513 1.71582 40.6751 1.04605 40.0053C0.376274 39.3355 0 38.4271 0 37.4799V30.3371C0 29.3899 0.376274 28.4814 1.04605 27.8117C1.71582 27.1419 2.62423 26.7656 3.57143 26.7656H6.25C6.4868 26.7656 6.7139 26.8597 6.88135 27.0271C7.04879 27.1946 7.14286 27.4217 7.14286 27.6585V40.1585C7.14286 40.3953 7.04879 40.6224 6.88135 40.7898C6.7139 40.9573 6.4868 41.0513 6.25 41.0513ZM3.57143 28.5513C3.09783 28.5513 2.64362 28.7395 2.30874 29.0744C1.97385 29.4092 1.78571 29.8635 1.78571 30.3371V37.4799C1.78571 37.9535 1.97385 38.4077 2.30874 38.7426C2.64362 39.0775 3.09783 39.2656 3.57143 39.2656H5.35714V28.5513H3.57143Z" fill="#FFC31B"/>
<path d="M8.92885 43.7288C7.98165 43.7288 7.07324 43.3525 6.40347 42.6827C5.7337 42.013 5.35742 41.1046 5.35742 40.1574V27.6574C5.35742 26.7102 5.7337 25.8018 6.40347 25.132C7.07324 24.4622 7.98165 24.0859 8.92885 24.0859C9.87605 24.0859 10.7845 24.4622 11.4542 25.132C12.124 25.8018 12.5003 26.7102 12.5003 27.6574V40.1574C12.5003 41.1046 12.124 42.013 11.4542 42.6827C10.7845 43.3525 9.87605 43.7288 8.92885 43.7288ZM8.92885 25.8717C8.45525 25.8717 8.00105 26.0598 7.66616 26.3947C7.33127 26.7296 7.14314 27.1838 7.14314 27.6574V40.1574C7.14314 40.631 7.33127 41.0852 7.66616 41.4201C8.00105 41.7549 8.45525 41.9431 8.92885 41.9431C9.40245 41.9431 9.85665 41.7549 10.1915 41.4201C10.5264 41.0852 10.7146 40.631 10.7146 40.1574V27.6574C10.7146 27.1838 10.5264 26.7296 10.1915 26.3947C9.85665 26.0598 9.40245 25.8717 8.92885 25.8717ZM46.4288 41.0502H43.7503C43.5135 41.0502 43.2864 40.9562 43.1189 40.7887C42.9515 40.6213 42.8574 40.3942 42.8574 40.1574V27.6574C42.8574 27.4206 42.9515 27.1935 43.1189 27.026C43.2864 26.8586 43.5135 26.7645 43.7503 26.7645H46.4288C47.3761 26.7645 48.2845 27.1408 48.9542 27.8106C49.624 28.4803 50.0003 29.3887 50.0003 30.3359V37.4788C50.0003 38.426 49.624 39.3344 48.9542 40.0042C48.2845 40.6739 47.3761 41.0502 46.4288 41.0502ZM44.6431 39.2645H46.4288C46.9025 39.2645 47.3567 39.0764 47.6915 38.7415C48.0264 38.4066 48.2146 37.9524 48.2146 37.4788V30.3359C48.2146 29.8623 48.0264 29.4081 47.6915 29.0732C47.3567 28.7384 46.9025 28.5502 46.4288 28.5502H44.6431V39.2645Z" fill="#FFC31B"/>
<path d="M41.0709 43.7288C40.1237 43.7288 39.2153 43.3525 38.5455 42.6827C37.8757 42.013 37.4994 41.1046 37.4994 40.1574V27.6574C37.4994 26.7102 37.8757 25.8018 38.5455 25.132C39.2153 24.4622 40.1237 24.0859 41.0709 24.0859C42.0181 24.0859 42.9265 24.4622 43.5963 25.132C44.266 25.8018 44.6423 26.7102 44.6423 27.6574V40.1574C44.6423 41.1046 44.266 42.013 43.5963 42.6827C42.9265 43.3525 42.0181 43.7288 41.0709 43.7288ZM41.0709 25.8717C40.5973 25.8717 40.1431 26.0598 39.8082 26.3947C39.4733 26.7296 39.2852 27.1838 39.2852 27.6574V40.1574C39.2852 40.631 39.4733 41.0852 39.8082 41.4201C40.1431 41.7549 40.5973 41.9431 41.0709 41.9431C41.5445 41.9431 41.9987 41.7549 42.3336 41.4201C42.6684 41.0852 42.8566 40.631 42.8566 40.1574V27.6574C42.8566 27.1838 42.6684 26.7296 42.3336 26.3947C41.9987 26.0598 41.5445 25.8717 41.0709 25.8717ZM26.7852 49.9788H23.2137C22.5033 49.9788 21.822 49.6966 21.3197 49.1943C20.8174 48.6919 20.5352 48.0106 20.5352 47.3002C20.5352 46.5898 20.8174 45.9085 21.3197 45.4062C21.822 44.9039 22.5033 44.6217 23.2137 44.6217H26.7852C27.4956 44.6217 28.1769 44.9039 28.6792 45.4062C29.1815 45.9085 29.4637 46.5898 29.4637 47.3002C29.4637 48.0106 29.1815 48.6919 28.6792 49.1943C28.1769 49.6966 27.4956 49.9788 26.7852 49.9788ZM23.2137 46.4074C22.9769 46.4074 22.7498 46.5014 22.5824 46.6689C22.4149 46.8363 22.3209 47.0634 22.3209 47.3002C22.3209 47.537 22.4149 47.7641 22.5824 47.9316C22.7498 48.099 22.9769 48.1931 23.2137 48.1931H26.7852C27.022 48.1931 27.2491 48.099 27.4165 47.9316C27.5839 47.7641 27.678 47.537 27.678 47.3002C27.678 47.0634 27.5839 46.8363 27.4165 46.6689C27.2491 46.5014 27.022 46.4074 26.7852 46.4074H23.2137Z" fill="#FFC31B"/>
<path d="M41.0723 48.2006H28.5723C28.3355 48.2006 28.1084 48.1065 27.9409 47.9391C27.7735 47.7716 27.6794 47.5445 27.6794 47.3077C27.6794 47.0709 27.7735 46.8438 27.9409 46.6764C28.1084 46.5089 28.3355 46.4149 28.5723 46.4149H41.0723C42.2563 46.4149 43.3918 45.9445 44.229 45.1073C45.0662 44.2701 45.5366 43.1346 45.5366 41.9506V40.1649C45.5366 39.9281 45.6306 39.701 45.7981 39.5335C45.9655 39.3661 46.1926 39.272 46.4294 39.272C46.6662 39.272 46.8933 39.3661 47.0608 39.5335C47.2282 39.701 47.3223 39.9281 47.3223 40.1649V41.9506C47.3223 43.6082 46.6638 45.1979 45.4917 46.37C44.3196 47.5421 42.7299 48.2006 41.0723 48.2006ZM45.5366 28.5577C45.2998 28.5577 45.0726 28.4637 44.9052 28.2962C44.7378 28.1288 44.6437 27.9017 44.6437 27.6649V21.4149C44.6447 20.5579 44.588 19.7018 44.4741 18.8524C44.4588 18.7351 44.4668 18.616 44.4976 18.5019C44.5284 18.3877 44.5814 18.2807 44.6535 18.187C44.7256 18.0933 44.8155 18.0148 44.918 17.9558C45.0205 17.8969 45.1336 17.8587 45.2508 17.8435C45.3681 17.8282 45.4872 17.8362 45.6014 17.867C45.7155 17.8978 45.8225 17.9508 45.9162 18.0229C46.0099 18.095 46.0884 18.1849 46.1474 18.2874C46.2063 18.3899 46.2445 18.503 46.2598 18.6202C46.3784 19.547 46.4351 20.4806 46.4294 21.4149V27.6649C46.4294 27.9017 46.3353 28.1288 46.1679 28.2962C46.0005 28.4637 45.7733 28.5577 45.5366 28.5577ZM4.46512 28.5577C4.22832 28.5577 4.00122 28.4637 3.83378 28.2962C3.66633 28.1288 3.57227 27.9017 3.57227 27.6649V21.4149C3.57248 20.4802 3.63512 19.5466 3.75977 18.6202C3.77501 18.503 3.8132 18.3899 3.87215 18.2874C3.9311 18.1849 4.00966 18.095 4.10335 18.0229C4.19704 17.9508 4.30402 17.8978 4.41818 17.867C4.53234 17.8362 4.65144 17.8282 4.76869 17.8435C4.88595 17.8587 4.99905 17.8969 5.10154 17.9558C5.20403 18.0148 5.29391 18.0933 5.36604 18.187C5.43817 18.2807 5.49115 18.3877 5.52193 18.5019C5.55272 18.616 5.56072 18.7351 5.54548 18.8524C5.42553 19.7014 5.36289 20.5575 5.35798 21.4149V27.6649C5.35798 27.9017 5.26391 28.1288 5.09647 28.2962C4.92902 28.4637 4.70192 28.5577 4.46512 28.5577Z" fill="#FFC31B"/>
<path d="M45.3569 19.6246C43.9761 19.6049 42.6307 19.1854 41.4834 18.4168C40.3361 17.6483 39.4362 16.5637 38.8926 15.2942C37.6992 12.5867 35.7404 10.2869 33.2572 8.67792C30.774 7.0689 27.8747 6.22078 24.9158 6.23785C21.9569 6.25493 19.0675 7.13646 16.6031 8.77403C14.1386 10.4116 12.2065 12.7338 11.0444 15.455C10.543 16.6763 9.69313 17.7231 8.60072 18.4646C7.50832 19.2061 6.22176 19.6095 4.90155 19.6246H4.64263C4.51493 19.6257 4.3885 19.5994 4.27184 19.5474C4.15519 19.4955 4.05104 19.4191 3.96641 19.3235C3.88179 19.2279 3.81866 19.1152 3.78128 18.9931C3.74391 18.871 3.73316 18.7423 3.74977 18.6157C4.43527 13.4678 6.96692 8.74412 10.874 5.32286C14.781 1.9016 19.7976 0.015625 24.9908 0.015625C30.1841 0.015625 35.2007 1.9016 39.1077 5.32286C43.0148 8.74412 45.5464 13.4678 46.2319 18.6157C46.2485 18.7423 46.2378 18.871 46.2004 18.9931C46.163 19.1152 46.0999 19.2279 46.0153 19.3235C45.9306 19.4191 45.8265 19.4955 45.7098 19.5474C45.5932 19.5994 45.4667 19.6257 45.3391 19.6246H45.3569ZM24.9998 1.76746C20.4219 1.76712 15.9877 3.3657 12.4632 6.28705C8.93868 9.2084 6.54518 13.269 5.6962 17.7675C6.51634 17.6129 7.28488 17.2559 7.93198 16.7289C8.57908 16.2019 9.08424 15.5215 9.40155 14.7496C10.4885 12.1963 12.1852 9.94859 14.343 8.20359C16.5007 6.45859 19.0536 5.26957 21.7778 4.74077C24.502 4.21197 27.3143 4.35954 29.9682 5.17054C32.6221 5.98155 35.0365 7.43122 36.9998 9.39246C38.4981 10.8779 39.709 12.6275 40.5712 14.5532C40.9079 15.3373 41.4244 16.0313 42.0789 16.5788C42.7335 17.1263 43.5077 17.5121 44.3391 17.705C43.5916 13.843 41.7075 10.2924 38.9283 7.50853C37.1037 5.67528 34.9325 4.22352 32.5412 3.23786C30.1498 2.2522 27.5862 1.75236 24.9998 1.76746Z" fill="#FFC31B"/>
<path d="M23.2146 24.9855H18.7503C18.5135 24.9855 18.2864 24.8914 18.1189 24.724C17.9515 24.5565 17.8574 24.3294 17.8574 24.0926V23.1998C17.8568 23.0823 17.8793 22.9658 17.9237 22.857C17.9681 22.7482 18.0336 22.6493 18.1164 22.5658L22.0271 18.6551C22.1662 18.5153 22.2609 18.3374 22.2992 18.1439C22.3375 17.9504 22.3177 17.7499 22.2423 17.5676C22.1669 17.3853 22.0393 17.2293 21.8755 17.1194C21.7117 17.0095 21.519 16.9505 21.3217 16.9498H20.6432C20.3779 16.9498 20.1236 17.0551 19.936 17.2427C19.7485 17.4302 19.6432 17.6846 19.6432 17.9498V18.7355C19.6432 18.9723 19.5491 19.1994 19.3816 19.3668C19.2142 19.5343 18.9871 19.6283 18.7503 19.6283C18.5135 19.6283 18.2864 19.5343 18.1189 19.3668C17.9515 19.1994 17.8574 18.9723 17.8574 18.7355V17.9498C17.8574 17.584 17.9295 17.2217 18.0695 16.8837C18.2095 16.5458 18.4147 16.2387 18.6734 15.98C18.932 15.7213 19.2391 15.5161 19.5771 15.3761C19.9151 15.2361 20.2773 15.1641 20.6432 15.1641H21.3217C22.0605 15.1641 22.7691 15.4576 23.2915 15.98C23.8139 16.5024 24.1074 17.211 24.1074 17.9498C24.1098 18.3162 24.0392 18.6793 23.8997 19.0181C23.7602 19.3569 23.5546 19.6645 23.2949 19.923L20.0092 23.1998H23.2146C23.4514 23.1998 23.6785 23.2938 23.8459 23.4613C24.0134 23.6287 24.1074 23.8558 24.1074 24.0926C24.1074 24.3294 24.0134 24.5565 23.8459 24.724C23.6785 24.8914 23.4514 24.9855 23.2146 24.9855ZM31.2503 21.4141H29.4646C28.5174 21.4141 27.609 21.0378 26.9392 20.368C26.2694 19.6982 25.8932 18.7898 25.8932 17.8426V16.0569C25.8932 15.8201 25.9872 15.593 26.1547 15.4256C26.3221 15.2581 26.5492 15.1641 26.786 15.1641C27.0228 15.1641 27.2499 15.2581 27.4174 15.4256C27.5848 15.593 27.6789 15.8201 27.6789 16.0569V17.8426C27.6789 18.3162 27.867 18.7704 28.2019 19.1053C28.5368 19.4402 28.991 19.6283 29.4646 19.6283H30.3574V16.0569C30.3574 15.8201 30.4515 15.593 30.6189 15.4256C30.7864 15.2581 31.0135 15.1641 31.2503 15.1641C31.4871 15.1641 31.7142 15.2581 31.8816 15.4256C32.0491 15.593 32.1432 15.8201 32.1432 16.0569V20.5212C32.1432 20.758 32.0491 20.9851 31.8816 21.1526C31.7142 21.32 31.4871 21.4141 31.2503 21.4141Z" fill="#FFC31B"/>
<path d="M31.2503 24.9821C31.0135 24.9821 30.7864 24.8881 30.6189 24.7206C30.4515 24.5532 30.3574 24.3261 30.3574 24.0893V20.5179C30.3574 20.2811 30.4515 20.054 30.6189 19.8865C30.7864 19.7191 31.0135 19.625 31.2503 19.625C31.4871 19.625 31.7142 19.7191 31.8816 19.8865C32.0491 20.054 32.1431 20.2811 32.1431 20.5179V24.0893C32.1431 24.3261 32.0491 24.5532 31.8816 24.7206C31.7142 24.8881 31.4871 24.9821 31.2503 24.9821Z" fill="#FFC31B"/>
<path d="M24.9997 32.1284C22.704 32.1284 20.4599 31.4476 18.5511 30.1722C16.6424 28.8968 15.1546 27.084 14.2761 24.9631C13.3976 22.8421 13.1677 20.5083 13.6156 18.2568C14.0635 16.0052 15.1689 13.937 16.7922 12.3137C18.4155 10.6904 20.4837 9.58496 22.7353 9.1371C24.9868 8.68923 27.3207 8.91909 29.4416 9.79761C31.5625 10.6761 33.3753 12.1638 34.6507 14.0726C35.9261 15.9814 36.6069 18.2255 36.6069 20.5212C36.6069 20.758 36.5128 20.9851 36.3454 21.1526C36.1779 21.32 35.9508 21.4141 35.714 21.4141C35.4772 21.4141 35.2501 21.32 35.0827 21.1526C34.9152 20.9851 34.8212 20.758 34.8212 20.5212C34.8212 18.5787 34.2451 16.6798 33.1659 15.0647C32.0868 13.4496 30.5529 12.1908 28.7582 11.4474C26.9636 10.704 24.9888 10.5095 23.0837 10.8885C21.1785 11.2675 19.4285 12.2029 18.0549 13.5764C16.6814 14.95 15.746 16.7 15.367 18.6051C14.9881 20.5103 15.1825 22.4851 15.9259 24.2797C16.6693 26.0743 17.9281 27.6082 19.5432 28.6874C21.1584 29.7666 23.0572 30.3426 24.9997 30.3426C25.2365 30.3426 25.4636 30.4367 25.6311 30.6042C25.7985 30.7716 25.8926 30.9987 25.8926 31.2355C25.8926 31.4723 25.7985 31.6994 25.6311 31.8668C25.4636 32.0343 25.2365 32.1284 24.9997 32.1284Z" fill="#FFC31B"/>
<path d="M24.107 34.8028C23.9895 34.8034 23.873 34.7809 23.7642 34.7365C23.6555 34.6921 23.5565 34.6266 23.4731 34.5438C23.3894 34.4608 23.323 34.3621 23.2777 34.2533C23.2323 34.1445 23.209 34.0278 23.209 33.9099C23.209 33.792 23.2323 33.6753 23.2777 33.5665C23.323 33.4577 23.3894 33.359 23.4731 33.276L25.5267 31.2313L23.4731 29.1867C23.305 29.0186 23.2105 28.7905 23.2105 28.5528C23.2105 28.315 23.305 28.087 23.4731 27.9188C23.6412 27.7507 23.8692 27.6562 24.107 27.6562C24.3448 27.6562 24.5728 27.7507 24.7409 27.9188L27.4195 30.5974C27.5032 30.6804 27.5696 30.7792 27.615 30.888C27.6603 30.9968 27.6836 31.1135 27.6836 31.2313C27.6836 31.3492 27.6603 31.4659 27.615 31.5747C27.5696 31.6835 27.5032 31.7823 27.4195 31.8653L24.7409 34.5438C24.6575 34.6266 24.5586 34.6921 24.4498 34.7365C24.341 34.7809 24.2245 34.8034 24.107 34.8028Z" fill="#FFC31B"/>
</svg>
