<svg width="0" height="0" class="hidden">
    <symbol xmlns="http://www.w3.org/2000/svg" viewBox="0 0 22 18" id="exit">
        <path fill-rule="evenodd" clip-rule="evenodd"
            d="M7.89252 5.72709C8.95751 3.61953 11.116 2.18854 13.5955 2.18854C17.1206 2.18854 20 5.08657 20 8.68854C20 12.2905 17.1206 15.1885 13.5955 15.1885C11.116 15.1885 8.95751 13.7575 7.89252 11.65C7.64344 11.157 7.04192 10.9594 6.54899 11.2084C6.05607 11.4575 5.8584 12.059 6.10748 12.552C7.49489 15.2976 10.3227 17.1885 13.5955 17.1885C18.2492 17.1885 22 13.3708 22 8.68854C22 4.00623 18.2492 0.188538 13.5955 0.188538C10.3227 0.188538 7.49489 2.07946 6.10748 4.82507C5.8584 5.318 6.05607 5.91952 6.54899 6.1686C7.04192 6.41769 7.64344 6.22001 7.89252 5.72709ZM5.20711 4.48143C4.81658 4.09091 4.18342 4.09091 3.79289 4.48143L0.29352 7.98084L0.2864 7.98804L3.79289 4.48143L0.29361 9.39634L3.79289 12.8956C4.18342 13.2861 4.81658 13.2861 5.20711 12.8956C5.59763 12.5051 5.59763 11.8719 5.20711 11.4814L3.41421 9.68854H13C13.5523 9.68854 14 9.24084 14 8.68854C14 8.13624 13.5523 7.68854 13 7.68854H3.41421L5.20711 5.89565C5.59763 5.50512 5.59763 4.87196 5.20711 4.48143ZM0 8.68854C0 8.55294 0.0269901 8.42364 0.0758801 8.30574C-0.0252929 8.55024 -0.0252929 8.82684 0.0758801 9.07134C0.0269901 8.95344 0 8.82414 0 8.68854Z">
        </path>
    </symbol>
</svg>