<svg width="0" height="0" class="hidden">
    <symbol xmlns="http://www.w3.org/2000/svg" viewBox="0 0 16 21" id="fire">
        <path fill-rule="evenodd" clip-rule="evenodd"
            d="M7.8202 0.174438L8.7809 1.37532C9.9186 2.7975 10.3379 4.20075 10.299 5.54704C10.2612 6.85605 9.7915 8.02304 9.3225 8.98619C9.1649 9.3098 8.9946 9.6349 8.8386 9.9327C8.7663 10.0708 8.697 10.203 8.6335 10.3265C8.4214 10.739 8.2593 11.0804 8.1563 11.3799C8.0528 11.6806 8.0336 11.8708 8.0468 11.991C8.0567 12.0817 8.0872 12.173 8.2071 12.2929C8.4054 12.4912 8.5517 12.5469 8.6404 12.5639C8.731 12.5814 8.8515 12.5757 9.0239 12.5049C9.4095 12.3463 9.8803 11.9334 10.3743 11.314C10.8488 10.719 11.2631 10.0384 11.5634 9.4938C11.712 9.2242 11.8295 8.99387 11.9091 8.83234C11.9488 8.75168 11.979 8.6885 11.9988 8.64651L12.0205 8.59999L12.0252 8.58959L12.0259 8.58824L12.6117 7.29169L13.6332 8.28206C15.946 10.5244 16.6617 13.7623 15.1415 16.7019C13.8195 19.2583 11.1123 21 8 21C3.60499 21 0 17.5172 0 13.1697C0 10.8793 1.26687 9.2404 2.64671 7.62914C2.82673 7.41894 3.0107 7.20711 3.19757 6.99194C4.47882 5.5167 5.89649 3.88437 7.1122 1.5397L7.8202 0.174438Z">
        </path>
    </symbol>
</svg>