<svg width="0" height="0" class="hidden">
    <symbol fill="none" xmlns="http://www.w3.org/2000/svg" viewBox="0 0 28 28" id="phone">
        <path
            d="M9.1737 9.80447C10.1017 11.7373 11.3667 13.5488 12.9689 15.1509C14.571 16.753 16.3825 18.0181 18.3153 18.9461C18.4816 19.0259 18.5647 19.0658 18.6699 19.0965C19.0437 19.2054 19.5027 19.1272 19.8193 18.9005C19.9083 18.8367 19.9846 18.7605 20.137 18.6081C20.6031 18.1419 20.8362 17.9089 21.0706 17.7565C21.9544 17.1818 23.0938 17.1818 23.9777 17.7565C24.2121 17.9089 24.4451 18.1419 24.9113 18.6081L25.1711 18.8679C25.8797 19.5765 26.234 19.9308 26.4265 20.3113C26.8092 21.068 26.8092 21.9617 26.4265 22.7185C26.234 23.099 25.8797 23.4533 25.1711 24.1619L24.9609 24.372C24.2548 25.0782 23.9017 25.4313 23.4216 25.701C22.889 26.0002 22.0616 26.2153 21.4507 26.2135C20.9001 26.2119 20.5238 26.1051 19.7712 25.8915C15.7267 24.7435 11.9102 22.5775 8.72621 19.3936C5.54224 16.2096 3.37627 12.3931 2.22831 8.34858C2.0147 7.59598 1.9079 7.21969 1.90626 6.66909C1.90444 6.05813 2.11959 5.23081 2.41882 4.69813C2.68848 4.21809 3.04157 3.86501 3.74773 3.15884L3.95791 2.94866C4.6665 2.24007 5.02079 1.88578 5.4013 1.69332C6.15805 1.31056 7.05174 1.31056 7.80848 1.69332C8.18899 1.88578 8.54329 2.24007 9.25188 2.94866L9.5117 3.20849C9.97785 3.67463 10.2109 3.9077 10.3633 4.14207C10.938 5.02593 10.938 6.16537 10.3633 7.04922C10.2109 7.28359 9.97785 7.51666 9.5117 7.9828C9.35929 8.13522 9.28308 8.21143 9.21929 8.30051C8.99261 8.61708 8.91434 9.0761 9.02331 9.4499C9.05397 9.55509 9.09388 9.63822 9.1737 9.80447Z"
            stroke-width="2" stroke-linecap="round" stroke-linejoin="round"></path>
    </symbol>
</svg>