<svg width="0" height="0" class="hidden">
    <symbol xmlns="http://www.w3.org/2000/svg" viewBox="0 0 54 26" id="tag">
        <path
            d="M52.6666 20.7778V5.22223C52.6666 3.07446 50.5935 1.33334 48.0361 1.33334H15.225C13.9969 1.33334 12.8191 1.74306 11.9507 2.47238L2.68957 10.2502C0.881226 11.7688 0.881226 14.2312 2.68957 15.7498L11.9507 23.5276C12.8191 24.257 13.9969 24.6667 15.225 24.6667H48.0361C50.5935 24.6667 52.6666 22.9256 52.6666 20.7778Z"
            stroke-linecap="round" stroke-linejoin="round"></path>
        <path
            d="M15.3334 13C15.3334 14.2886 14.2886 15.3333 13 15.3333C11.7114 15.3333 10.6667 14.2886 10.6667 13C10.6667 11.7114 11.7114 10.6667 13 10.6667C14.2886 10.6667 15.3334 11.7114 15.3334 13Z"
            fill="white" stroke-linecap="round" stroke-linejoin="round"></path>
    </symbol>
</svg>